REM DIRINDEX 1\2,1\3,1\4,1\5
REM DIRNAME folder01,folder02,folder03,folder04,folder05
TITLE ""
FILE "P1Q_t_0933-0942.mp3" MP3
  TRACK 01 AUDIO
    TITLE "3:cjc005_3704"
    INDEX 01 00:00:00
  TRACK 02 AUDIO
    TITLE "0:"
    INDEX 01 00:01:09
  TRACK 03 AUDIO
    TITLE "4:cjc005_3705"
    INDEX 01 00:01:40
  TRACK 04 AUDIO
    TITLE "0:"
    INDEX 01 00:03:10
  TRACK 05 AUDIO
    TITLE "5:cjc005_3706"
    INDEX 01 00:03:37
  TRACK 06 AUDIO
    TITLE "0:"
    INDEX 01 00:07:19
  TRACK 07 AUDIO
    TITLE "3:cjc005_3707"
    INDEX 01 00:07:72
  TRACK 08 AUDIO
    TITLE "0:"
    INDEX 01 00:09:00
  TRACK 09 AUDIO
    TITLE "4:cjc005_3708"
    INDEX 01 00:09:28
  TRACK 10 AUDIO
    TITLE "0:"
    INDEX 01 00:10:29
  TRACK 11 AUDIO
    TITLE "5:cjc005_3709"
    INDEX 01 00:10:55
  TRACK 12 AUDIO
    TITLE "0:"
    INDEX 01 00:14:35
  TRACK 13 AUDIO
    TITLE "3:cjc005_3710"
    INDEX 01 00:15:11
  TRACK 14 AUDIO
    TITLE "0:"
    INDEX 01 00:16:38
  TRACK 15 AUDIO
    TITLE "4:cjc005_3711"
    INDEX 01 00:16:63
  TRACK 16 AUDIO
    TITLE "0:"
    INDEX 01 00:18:17
  TRACK 17 AUDIO
    TITLE "5:cjc005_3712"
    INDEX 01 00:18:41
  TRACK 18 AUDIO
    TITLE "0:"
    INDEX 01 00:21:45
  TRACK 19 AUDIO
    TITLE "3:cjc005_3713"
    INDEX 01 00:22:27
  TRACK 20 AUDIO
    TITLE "0:"
    INDEX 01 00:23:26
  TRACK 21 AUDIO
    TITLE "4:cjc005_3714"
    INDEX 01 00:23:57
  TRACK 22 AUDIO
    TITLE "0:"
    INDEX 01 00:24:67
  TRACK 23 AUDIO
    TITLE "5:cjc005_3715"
    INDEX 01 00:25:15
  TRACK 24 AUDIO
    TITLE "0:"
    INDEX 01 00:30:24
  TRACK 25 AUDIO
    TITLE "3:cjc005_3716"
    INDEX 01 00:30:71
  TRACK 26 AUDIO
    TITLE "0:"
    INDEX 01 00:32:05
  TRACK 27 AUDIO
    TITLE "4:cjc005_3717"
    INDEX 01 00:32:27
  TRACK 28 AUDIO
    TITLE "0:"
    INDEX 01 00:33:60
  TRACK 29 AUDIO
    TITLE "5:cjc005_3718"
    INDEX 01 00:34:08
  TRACK 30 AUDIO
    TITLE "0:"
    INDEX 01 00:38:41
  TRACK 31 AUDIO
    TITLE "3:cjc005_3719"
    INDEX 01 00:39:15
  TRACK 32 AUDIO
    TITLE "0:"
    INDEX 01 00:40:28
  TRACK 33 AUDIO
    TITLE "4:cjc005_3720"
    INDEX 01 00:40:54
  TRACK 34 AUDIO
    TITLE "0:"
    INDEX 01 00:42:00
  TRACK 35 AUDIO
    TITLE "5:cjc005_3721"
    INDEX 01 00:42:23
  TRACK 36 AUDIO
    TITLE "0:"
    INDEX 01 00:45:45
  TRACK 37 AUDIO
    TITLE "3:cjc005_3722"
    INDEX 01 00:46:19
  TRACK 38 AUDIO
    TITLE "0:"
    INDEX 01 00:47:23
  TRACK 39 AUDIO
    TITLE "4:cjc005_3723"
    INDEX 01 00:47:54
  TRACK 40 AUDIO
    TITLE "0:"
    INDEX 01 00:49:23
  TRACK 41 AUDIO
    TITLE "5:cjc005_3724"
    INDEX 01 00:49:41
  TRACK 42 AUDIO
    TITLE "0:"
    INDEX 01 00:52:69
  TRACK 43 AUDIO
    TITLE "3:cjc005_3725"
    INDEX 01 00:53:41
  TRACK 44 AUDIO
    TITLE "0:"
    INDEX 01 00:54:68
  TRACK 45 AUDIO
    TITLE "4:cjc005_3726"
    INDEX 01 00:55:22
  TRACK 46 AUDIO
    TITLE "0:"
    INDEX 01 00:56:72
  TRACK 47 AUDIO
    TITLE "5:cjc005_3727"
    INDEX 01 00:57:23
  TRACK 48 AUDIO
    TITLE "0:"
    INDEX 01 01:01:70
  TRACK 49 AUDIO
    TITLE "3:cjc005_3728"
    INDEX 01 01:02:44
  TRACK 50 AUDIO
    TITLE "0:"
    INDEX 01 01:03:63
  TRACK 51 AUDIO
    TITLE "4:cjc005_3729"
    INDEX 01 01:04:13
  TRACK 52 AUDIO
    TITLE "0:"
    INDEX 01 01:05:42
  TRACK 53 AUDIO
    TITLE "5:cjc005_3730"
    INDEX 01 01:05:68
  TRACK 54 AUDIO
    TITLE "0:"
    INDEX 01 01:08:74
  TRACK 55 AUDIO
    TITLE "3:cjc005_3731"
    INDEX 01 01:09:52
  TRACK 56 AUDIO
    TITLE "0:"
    INDEX 01 01:11:03
  TRACK 57 AUDIO
    TITLE "4:cjc005_3732"
    INDEX 01 01:11:29
  TRACK 58 AUDIO
    TITLE "0:"
    INDEX 01 01:14:33
  TRACK 59 AUDIO
    TITLE "5:cjc005_3733"
    INDEX 01 01:14:55
  TRACK 60 AUDIO
    TITLE "0:"
    INDEX 01 01:19:46
